<svg width="25" height="24" viewBox="0 0 25 24" fill="none" xmlns="http://www.w3.org/2000/svg">
<g clip-path="url(#clip0_2_11596)">
<path d="M5.0943 15H4.0943C3.56387 15 3.05516 14.7893 2.68009 14.4142C2.30501 14.0391 2.0943 13.5304 2.0943 13V4C2.0943 3.46957 2.30501 2.96086 2.68009 2.58579C3.05516 2.21071 3.56387 2 4.0943 2H13.0943C13.6247 2 14.1334 2.21071 14.5085 2.58579C14.8836 2.96086 15.0943 3.46957 15.0943 4V5M11.0943 9H20.0943C21.1989 9 22.0943 9.89543 22.0943 11V20C22.0943 21.1046 21.1989 22 20.0943 22H11.0943C9.98973 22 9.0943 21.1046 9.0943 20V11C9.0943 9.89543 9.98973 9 11.0943 9Z" stroke="#F5F5F5" stroke-width="2.5" stroke-linecap="round" stroke-linejoin="round"/>
</g>
<defs>
<clipPath id="clip0_2_11596">
<rect width="24" height="24" fill="white" transform="translate(0.0942993)"/>
</clipPath>
</defs>
</svg>
