<svg width="25" height="24" viewBox="0 0 25 24" fill="none" xmlns="http://www.w3.org/2000/svg">
<g clip-path="url(#clip0_2_11660)">
<path d="M12.0943 15C13.7512 15 15.0943 13.6569 15.0943 12C15.0943 10.3431 13.7512 9 12.0943 9C10.4374 9 9.0943 10.3431 9.0943 12C9.0943 13.6569 10.4374 15 12.0943 15Z" stroke="#F5F5F5" stroke-width="2.5" stroke-linecap="round" stroke-linejoin="round"/>
<path d="M19.4943 15C19.3612 15.3016 19.3215 15.6362 19.3803 15.9606C19.4391 16.285 19.5938 16.5843 19.8243 16.82L19.8843 16.88C20.0703 17.0657 20.2178 17.2863 20.3184 17.5291C20.4191 17.7719 20.4709 18.0322 20.4709 18.295C20.4709 18.5578 20.4191 18.8181 20.3184 19.0609C20.2178 19.3037 20.0703 19.5243 19.8843 19.71C19.6986 19.896 19.478 20.0435 19.2352 20.1441C18.9924 20.2448 18.7321 20.2966 18.4693 20.2966C18.2065 20.2966 17.9462 20.2448 17.7034 20.1441C17.4606 20.0435 17.24 19.896 17.0543 19.71L16.9943 19.65C16.7586 19.4195 16.4593 19.2648 16.1349 19.206C15.8105 19.1472 15.4759 19.1869 15.1743 19.32C14.8785 19.4468 14.6263 19.6572 14.4486 19.9255C14.2709 20.1938 14.1756 20.5082 14.1743 20.83V21C14.1743 21.5304 13.9636 22.0391 13.5885 22.4142C13.2134 22.7893 12.7047 23 12.1743 23C11.6439 23 11.1352 22.7893 10.7601 22.4142C10.385 22.0391 10.1743 21.5304 10.1743 21V20.91C10.1666 20.579 10.0594 20.258 9.86681 19.9887C9.6742 19.7194 9.40503 19.5143 9.0943 19.4C8.79268 19.2669 8.45811 19.2272 8.13371 19.286C7.80932 19.3448 7.50998 19.4995 7.2743 19.73L7.2143 19.79C7.02855 19.976 6.80798 20.1235 6.56518 20.2241C6.32238 20.3248 6.06213 20.3766 5.7993 20.3766C5.53647 20.3766 5.27621 20.3248 5.03342 20.2241C4.79062 20.1235 4.57005 19.976 4.3843 19.79C4.19835 19.6043 4.05083 19.3837 3.95018 19.1409C3.84953 18.8981 3.79773 18.6378 3.79773 18.375C3.79773 18.1122 3.84953 17.8519 3.95018 17.6091C4.05083 17.3663 4.19835 17.1457 4.3843 16.96L4.4443 16.9C4.67484 16.6643 4.82948 16.365 4.8883 16.0406C4.94712 15.7162 4.90741 15.3816 4.7743 15.08C4.64754 14.7842 4.43705 14.532 4.16876 14.3543C3.90047 14.1766 3.58609 14.0813 3.2643 14.08H3.0943C2.56387 14.08 2.05516 13.8693 1.68009 13.4942C1.30501 13.1191 1.0943 12.6104 1.0943 12.08C1.0943 11.5496 1.30501 11.0409 1.68009 10.6658C2.05516 10.2907 2.56387 10.08 3.0943 10.08H3.1843C3.51529 10.0723 3.8363 9.96512 4.1056 9.77251C4.37489 9.5799 4.58001 9.31074 4.6943 9C4.82741 8.69838 4.86712 8.36381 4.8083 8.03941C4.74948 7.71502 4.59484 7.41568 4.3643 7.18L4.3043 7.12C4.11835 6.93425 3.97083 6.71368 3.87018 6.47088C3.76953 6.22808 3.71773 5.96783 3.71773 5.705C3.71773 5.44217 3.76953 5.18192 3.87018 4.93912C3.97083 4.69632 4.11835 4.47575 4.3043 4.29C4.49005 4.10405 4.71062 3.95653 4.95342 3.85588C5.19621 3.75523 5.45647 3.70343 5.7193 3.70343C5.98213 3.70343 6.24238 3.75523 6.48518 3.85588C6.72798 3.95653 6.94855 4.10405 7.1343 4.29L7.1943 4.35C7.42998 4.58054 7.72932 4.73519 8.05371 4.794C8.37811 4.85282 8.71268 4.81312 9.0143 4.68H9.0943C9.39007 4.55324 9.64232 4.34276 9.81999 4.07447C9.99767 3.80618 10.093 3.49179 10.0943 3.17V3C10.0943 2.46957 10.305 1.96086 10.6801 1.58579C11.0552 1.21071 11.5639 1 12.0943 1C12.6247 1 13.1334 1.21071 13.5085 1.58579C13.8836 1.96086 14.0943 2.46957 14.0943 3V3.09C14.0956 3.41179 14.1909 3.72618 14.3686 3.99447C14.5463 4.26276 14.7985 4.47324 15.0943 4.6C15.3959 4.73312 15.7305 4.77282 16.0549 4.714C16.3793 4.65519 16.6786 4.50054 16.9143 4.27L16.9743 4.21C17.16 4.02405 17.3806 3.87653 17.6234 3.77588C17.8662 3.67523 18.1265 3.62343 18.3893 3.62343C18.6521 3.62343 18.9124 3.67523 19.1552 3.77588C19.398 3.87653 19.6186 4.02405 19.8043 4.21C19.9903 4.39575 20.1378 4.61632 20.2384 4.85912C20.3391 5.10192 20.3909 5.36217 20.3909 5.625C20.3909 5.88783 20.3391 6.14808 20.2384 6.39088C20.1378 6.63368 19.9903 6.85425 19.8043 7.04L19.7443 7.1C19.5138 7.33568 19.3591 7.63502 19.3003 7.95941C19.2415 8.28381 19.2812 8.61838 19.4143 8.92V9C19.5411 9.29577 19.7515 9.54802 20.0198 9.72569C20.2881 9.90337 20.6025 9.99872 20.9243 10H21.0943C21.6247 10 22.1334 10.2107 22.5085 10.5858C22.8836 10.9609 23.0943 11.4696 23.0943 12C23.0943 12.5304 22.8836 13.0391 22.5085 13.4142C22.1334 13.7893 21.6247 14 21.0943 14H21.0043C20.6825 14.0013 20.3681 14.0966 20.0998 14.2743C19.8315 14.452 19.6211 14.7042 19.4943 15Z" stroke="#F5F5F5" stroke-width="2.5" stroke-linecap="round" stroke-linejoin="round"/>
</g>
<defs>
<clipPath id="clip0_2_11660">
<rect width="24" height="24" fill="white" transform="translate(0.0942993)"/>
</clipPath>
</defs>
</svg>
