<svg width="25" height="25" viewBox="0 0 25 25" fill="none" xmlns="http://www.w3.org/2000/svg">
<path d="M10.5506 8.6312L6.54375 15.4455M17.5237 15.4787L13.5706 8.64308M19.0117 21.0746C17.3548 21.0681 16.017 19.7197 16.0235 18.0628C16.03 16.406 17.3785 15.0681 19.0353 15.0746C20.6921 15.0812 22.03 16.4296 22.0235 18.0864C22.0169 19.7433 20.6685 21.0811 19.0117 21.0746ZM12.059 9.04714C10.4021 9.04061 9.06429 7.69219 9.07081 6.03535C9.07733 4.37851 10.4258 3.04066 12.0826 3.04718C13.7394 3.05371 15.0773 4.40213 15.0708 6.05897C15.0642 7.71581 13.7158 9.05366 12.059 9.04714ZM5.01179 21.0195C3.35495 21.013 2.0171 19.6645 2.02363 18.0077C2.03015 16.3509 3.37857 15.013 5.03541 15.0195C6.69225 15.0261 8.0301 16.3745 8.02358 18.0313C8.01706 19.6882 6.66864 21.026 5.01179 21.0195Z" stroke="#F5F5F5" stroke-width="2.5" stroke-linecap="round" stroke-linejoin="round"/>
</svg>
