<svg width="26" height="24" viewBox="0 0 26 24" fill="none" xmlns="http://www.w3.org/2000/svg">
<path d="M17.0943 16L13.0943 12M13.0943 12L9.09432 16M13.0943 12V21M21.4843 18.39C22.4597 17.8583 23.2302 17.0169 23.6742 15.9986C24.1182 14.9804 24.2105 13.8432 23.9365 12.7667C23.6625 11.6901 23.0378 10.7355 22.161 10.0534C21.2842 9.37137 20.2052 9.00072 19.0943 8.99998H17.8343C17.5316 7.82923 16.9675 6.74232 16.1843 5.82098C15.4011 4.89964 14.4192 4.16783 13.3124 3.68059C12.2057 3.19335 11.0029 2.96334 9.79444 3.00787C8.586 3.05239 7.40339 3.37028 6.3355 3.93765C5.26761 4.50501 4.34223 5.30709 3.62894 6.28357C2.91565 7.26004 2.43301 8.38552 2.2173 9.57538C2.00159 10.7652 2.05843 11.9885 2.38353 13.1532C2.70864 14.318 3.29356 15.3938 4.09432 16.3" stroke="#F5F5F5" stroke-width="2.5" stroke-linecap="round" stroke-linejoin="round"/>
</svg>
